<svg width="64" height="64" viewBox="0 0 64 64" fill="none" xmlns="http://www.w3.org/2000/svg">
<path d="M59.0317 13.0074H4.96825C2.22862 13.0074 0 15.2363 0 17.9757V46.0241C0 48.7637 2.22862 50.9923 4.96825 50.9923H59.0317C61.7714 50.9923 64 48.7637 64 46.0241V17.9757C64 15.2363 61.7714 13.0074 59.0317 13.0074ZM59.0316 14.9716C60.6881 14.9716 62.0359 16.3192 62.0359 17.9758V21.0036H62.036L57.9965 21.0104V15.8669C57.9965 15.5542 57.9452 15.2534 57.8521 14.9716H59.0316ZM47.9907 21.9183H50.9847V24.0132H52.9486V21.9183H55.0435V19.9543H52.9486V17.9904H50.9847V19.9543H47.9907V15.8667C47.9907 15.3732 48.3925 14.9714 48.8861 14.9714H55.1371C55.631 14.9714 56.0326 15.3732 56.0326 15.8668V24.1189C56.0326 24.6127 55.6309 25.0143 55.1371 25.0143H48.8862C48.3926 25.0143 47.9909 24.6126 47.9909 24.1189V21.9183H47.9907ZM32.9821 21.9184H36.0589V24.0133H38.0228V21.9184H41.0341V24.0133H42.998V21.9184H46.0267V24.1191V27.4504C46.0267 27.7624 45.7729 28.0163 45.4609 28.0163H33.5479C33.2359 28.0163 32.982 27.7624 32.982 27.4504V21.9184H32.9821ZM32.9819 15.5373C32.982 15.2253 33.236 14.9714 33.5479 14.9714H45.4609C45.7729 14.9714 46.0267 15.2253 46.0267 15.5373V15.8669V19.9546H42.998V17.9907H41.0341V19.9546H38.0228V17.9907H36.0589V19.9546H32.982L32.9819 15.5373ZM18.5391 14.9714H30.4522C30.7642 14.9714 31.0181 15.2253 31.0181 15.5373V19.9544H27.9412V17.9906H25.9774V19.9544H22.966V17.9906H21.0021V19.9544H17.9735V15.5983V15.5373C17.9734 15.2253 18.2271 14.9714 18.5391 14.9714ZM17.9731 24.3876L17.9732 21.9183H21.0019V24.0132H22.9657V21.9183H25.9771V24.0132H27.9411V21.9183H31.018V27.4503C31.018 27.7623 30.7641 28.0162 30.4521 28.0162H18.539C18.227 28.0162 17.9731 27.7623 17.9731 27.4503V24.3876ZM7.96737 15.5983C7.96737 15.2527 8.24862 14.9714 8.59425 14.9714H15.3822C15.728 14.9714 16.0093 15.2527 16.0093 15.5983V19.9544H13.0151V17.9906H11.0514V19.9544H8.9565V21.9183H11.0514V24.0132H13.0153V21.9183H16.0094V24.3876C16.0094 24.7332 15.7281 25.0144 15.3824 25.0144H8.59437C8.24875 25.0144 7.9675 24.7332 7.9675 24.3876V15.5983H7.96737ZM1.96388 17.9757C1.96388 16.3191 3.3115 14.9714 4.96812 14.9714H6.08325C6.033 15.1726 6.00338 15.3818 6.00338 15.5983V21.0104L1.96388 21.0036V17.9757ZM4.96825 49.0284C3.31162 49.0284 1.964 47.6808 1.964 46.0242V42.9963L6.0035 42.9893V48.1663C6.0035 48.4671 6.05162 48.7564 6.139 49.0284H4.96825ZM16.0094 42.0814H13.0153V39.9866H11.0514V42.0814H8.9565V44.0454H11.0514V46.0093H13.0153V44.0454H16.0094V48.1664C16.0094 48.6418 15.6226 49.0284 15.1473 49.0284H8.82963C8.35425 49.0284 7.9675 48.6417 7.9675 48.1663V39.8474C7.9675 39.3721 8.35425 38.9853 8.82963 38.9853H15.1474C15.6228 38.9853 16.0094 39.3721 16.0094 39.8474V42.0814ZM31.018 48.1874C31.018 48.6512 30.6408 49.0284 30.177 49.0284H18.8141C18.3504 49.0284 17.9731 48.6512 17.9731 48.1874V48.1663V44.0453H21.0018V46.0092H22.9656V44.0453H25.977V46.0092H27.941V44.0453H31.0179L31.018 48.1874ZM31.018 42.0814H27.9412V39.9866H25.9772V42.0814H22.9659V39.9866H21.002V42.0814H17.9734V39.8474V36.8246C17.9734 36.3608 18.3506 35.9836 18.8144 35.9836H30.1772C30.641 35.9836 31.0182 36.3608 31.0182 36.8246V42.0814H31.018ZM46.0269 39.5187V42.0817H42.9981V39.9868H41.0342V42.0817H38.0229V39.9868H36.0588V42.0817H32.9819V36.8249V36.7019C32.9819 36.3061 33.304 35.9839 33.6999 35.9839H45.3086C45.7046 35.9839 46.0266 36.3061 46.0266 36.7019V39.5187H46.0269ZM46.027 48.3104C46.0269 48.7063 45.7048 49.0284 45.3089 49.0284H33.7001C33.3043 49.0284 32.9821 48.7063 32.9821 48.3104V48.1874V44.0453H36.059V46.0092H38.0229V44.0453H41.0342V46.0092H42.9981V44.0453H46.0269V48.3104H46.027ZM55.4995 49.0284H48.524C48.23 49.0284 47.9909 48.7892 47.9909 48.4953V48.3104V44.0454H50.9849V46.0093H52.9487V44.0454H55.0436V42.0814H52.9487V39.9866H50.9849V42.0814H47.9907V39.5186C47.9907 39.2244 48.23 38.9854 48.5239 38.9854H55.4994C55.7933 38.9854 56.0325 39.2247 56.0325 39.5186V48.4953C56.0326 48.7893 55.7935 49.0284 55.4995 49.0284ZM62.0361 46.0242C62.036 47.6808 60.6883 49.0284 59.0317 49.0284H57.938C57.9756 48.8564 57.9966 48.6783 57.9966 48.4953V42.9894L62.0361 42.9964V46.0242ZM62.0361 41.0323L57.9966 41.0253V39.5184C57.9966 38.1414 56.8764 37.0213 55.4995 37.0213H48.524C48.3409 37.0213 48.1628 37.0424 47.9909 37.0799V36.7014C47.9909 35.2226 46.7878 34.0194 45.3089 34.0194H33.7001C33.0373 34.0194 32.4307 34.2626 31.9622 34.6626C31.4769 34.2612 30.8548 34.0194 30.1771 34.0194H18.8143C17.2676 34.0194 16.0094 35.2777 16.0094 36.8243V37.1567C15.7372 37.0693 15.448 37.0211 15.1474 37.0211H8.82963C7.27125 37.0211 6.00362 38.2888 6.00362 39.8472V41.0252L1.96388 41.0322V22.9676L6.00338 22.9746V24.3878C6.00338 25.8164 7.16562 26.9787 8.59425 26.9787H15.3822C15.5988 26.9787 15.808 26.9491 16.0093 26.8988V27.4507C16.0093 28.8456 17.1441 29.9804 18.5391 29.9804H30.4522C31.0355 29.9804 31.5718 29.7801 32.0001 29.4473C32.4285 29.7802 32.9646 29.9804 33.548 29.9804H45.461C46.8559 29.9804 47.9907 28.8456 47.9907 27.4507V26.8344C48.2726 26.9277 48.5735 26.9788 48.8861 26.9788H55.1371C56.7139 26.9788 57.9966 25.6961 57.9966 24.1194V22.9748L62.0361 22.9678V41.0323Z" fill="#356C81"/>
</svg>
