<svg width="59" height="59" viewBox="0 0 59 59" fill="none" xmlns="http://www.w3.org/2000/svg">
<path d="M53.4914 11.624C51.6899 8.55915 48.6661 6.64061 45.2009 6.36036C44.8869 6.33397 44.5709 6.32141 44.2495 6.32141C44.0525 6.32141 43.8618 6.34561 43.6669 6.35518C39.8381 2.26309 34.8305 0 29.4994 0C24.1683 0 19.1607 2.26309 15.332 6.35518C15.1372 6.34573 14.9465 6.32141 14.7494 6.32141C14.428 6.32141 14.1121 6.33409 13.8001 6.35932C10.3328 6.64061 7.31012 8.55915 5.50855 11.623C3.63322 14.8111 3.42246 18.7135 4.94494 22.0639L8.01086 28.8089C8.31635 29.4801 8.53875 30.185 8.6715 30.9055L12.9322 53.9176C13.479 56.8623 16.0487 58.999 19.0429 58.999C21.3335 58.999 23.43 57.7473 24.5142 55.7308L27.6454 49.9162C28.0184 49.2219 28.7127 48.8079 29.5008 48.8079C30.2889 48.8079 30.9821 49.2219 31.3562 49.9151L34.4875 55.7298C35.5705 57.7484 37.6671 59 39.9576 59C42.9519 59 45.5215 56.8633 46.0684 53.9176L50.3291 30.9065C50.4618 30.1848 50.6841 29.4801 50.9897 28.81L54.0556 22.065C55.5774 18.7146 55.3668 14.8121 53.4914 11.624ZM29.4994 2.10718C33.78 2.10718 37.8405 3.74973 41.1108 6.76391C38.8983 7.37915 36.9249 8.6435 35.4089 10.442C33.5166 9.81198 31.5307 9.48218 29.4994 9.48218C27.467 9.48218 25.4821 9.81198 23.59 10.442C22.0738 8.6435 20.1006 7.37926 17.8881 6.76391C21.1583 3.74961 25.2188 2.10718 29.4994 2.10718ZM52.1365 21.1915L49.0706 27.9365C48.6945 28.7625 48.4206 29.6327 48.2562 30.5231L43.9956 53.5331C43.6342 55.4801 41.9359 56.8929 39.9572 56.8929C38.4432 56.8929 37.0578 56.0659 36.3413 54.7331L33.2101 48.9173C32.4621 47.5308 31.0756 46.7017 29.4994 46.7017C27.9232 46.7017 26.5367 47.5298 25.7888 48.9185L22.6575 54.7331C21.9411 56.0659 20.5556 56.8929 19.0417 56.8929C17.0631 56.8929 15.3647 55.48 15.0033 53.5342L10.7427 30.5231C10.5784 29.6327 10.3045 28.7625 9.92836 27.9365L6.86244 21.1915C5.62344 18.4658 5.79617 15.2884 7.32395 12.6912C8.77371 10.2269 11.1958 8.68452 13.9731 8.45901C14.2291 8.43896 14.4883 8.42847 14.7495 8.42847C17.3413 8.42847 19.7467 9.45671 21.5208 11.2763C19.1219 12.4046 16.9157 14.0429 15.0192 16.1532L16.587 17.5608C20.0458 13.71 24.632 11.5891 29.4995 11.5891C34.367 11.5891 38.9533 13.71 42.4121 17.5608L43.9799 16.1532C42.0835 14.0429 39.8773 12.4046 37.4782 11.2752C39.2525 9.45567 41.6568 8.42847 44.2495 8.42847C44.5108 8.42847 44.7701 8.43896 45.0282 8.46005C47.8032 8.68441 50.2255 10.2269 51.6751 12.6912C53.2027 15.2894 53.3755 18.466 52.1365 21.1915Z" fill="#356C81"/>
<path d="M36.7903 28.4464C36.3256 25.2235 33.776 22.6739 30.5531 22.2092V17.9106H28.4459V22.2092C25.223 22.6739 22.6734 25.2235 22.2087 28.4464H17.9102V30.5536H22.2087C22.6734 33.7765 25.223 36.3261 28.4459 36.7908V41.0893H30.5531V36.7908C33.776 36.3261 36.3256 33.7765 36.7903 30.5536H41.0889V28.4464H36.7903ZM28.446 34.6615C26.3853 34.2411 24.7585 32.6143 24.3382 30.5536H28.446V34.6615ZM28.446 28.4464H24.3382C24.7585 26.3857 26.3853 24.7589 28.446 24.3385V28.4464ZM30.5531 34.6615V30.5536H34.661C34.2406 32.6143 32.6139 34.2411 30.5531 34.6615ZM30.5531 28.4464V24.3385C32.6138 24.7589 34.2406 26.3857 34.661 28.4464H30.5531Z" fill="#356C81"/>
</svg>
