<svg width="57" height="57" viewBox="0 0 57 57" fill="none" xmlns="http://www.w3.org/2000/svg">
<path d="M53.5786 17.1208C54.6153 15.375 55.1621 13.3844 55.1621 11.3398C55.1621 5.08703 50.0751 0 43.8222 0C39.7892 0 36.0869 2.12948 34.0499 5.58678C31.0876 6.12817 28.7479 6.95723 27.8875 7.28531C26.962 6.93229 24.3259 5.99936 21.0441 5.46944C15.6316 4.5954 11.0668 5.27194 7.8423 7.42559C3.85843 10.0864 1.83838 14.909 1.83838 21.7586C1.83838 27.3165 2.72633 32.6176 4.47763 37.5147C5.88048 41.4377 7.83696 45.1098 10.2925 48.4295C14.4843 54.096 18.641 56.7482 18.816 56.8583L19.041 56.9999H19.3069C21.7816 56.9999 22.68 54.9834 22.68 53.628V38.3061C22.68 36.1644 23.5225 34.646 25.184 33.7933C26.505 33.1154 27.8769 33.0985 27.8876 33.0985C28.1001 33.0985 33.0952 33.1577 33.0952 38.3061V53.6281C33.0952 54.9835 33.9932 57 36.4671 57H36.7328L36.9578 56.8584C37.1327 56.7484 41.2898 54.0962 45.4819 48.4296C47.9376 45.11 49.8943 41.4378 51.2972 37.5148C53.0488 32.6176 53.9367 27.3166 53.9367 21.7587C53.9367 20.1787 53.8275 18.6868 53.6123 17.3248C53.6014 17.2554 53.5899 17.1883 53.5786 17.1208ZM49.5814 36.8425C48.2475 40.5881 46.3867 44.0954 44.0507 47.267C41.0278 51.3713 37.7397 54.1153 36.2141 55.1442C35.057 55.0106 34.943 53.9585 34.9371 53.6282V38.3061C34.9371 34.6699 32.9939 32.935 31.3637 32.1199C29.6568 31.2664 27.959 31.2566 27.8876 31.2566C27.8162 31.2566 26.1184 31.2664 24.4115 32.1199C22.7813 32.9351 20.8381 34.6698 20.8381 38.3061V53.6281C20.8381 53.632 20.8258 54.0479 20.6289 54.4416C20.4915 54.7161 20.2341 55.0716 19.5659 55.1447C18.6562 54.5179 15.2116 51.9821 11.7735 47.3344C9.42528 44.16 7.55419 40.6475 6.21202 36.8946C4.53207 32.197 3.6803 27.1045 3.6803 21.7586C3.6803 15.5647 5.42348 11.2585 8.8614 8.95991C15.7643 4.3448 27.4184 9.07747 27.5347 9.12568L27.8874 9.27152L28.2396 9.12579C28.2633 9.11599 30.2723 8.29317 33.0958 7.66027C32.6925 8.83912 32.4821 10.0855 32.4821 11.3398C32.4821 17.5926 37.5693 22.6795 43.8221 22.6795C46.949 22.6795 49.8708 21.4129 51.9865 19.2117C52.0578 20.0239 52.0947 20.875 52.0947 21.7586C52.0947 27.0847 51.2491 32.1596 49.5814 36.8425ZM51.8342 16.4425C50.0775 19.1947 47.0824 20.8378 43.8222 20.8378C38.585 20.8378 34.3242 16.5771 34.3242 11.3399C34.3242 9.77572 34.7121 8.22626 35.4463 6.85881L35.4464 6.85848C37.1056 3.76412 40.315 1.84192 43.8222 1.84192C49.0593 1.84192 53.3202 6.10267 53.3202 11.3399C53.3202 13.1555 52.8063 14.92 51.8342 16.4425Z" fill="#356C81"/>
<path d="M15.4057 10.4464C15.3226 10.4671 13.3519 10.972 11.3803 12.5329C9.54361 13.9872 7.354 16.6617 7.354 21.146H9.19593C9.19593 14.0178 15.5828 12.3024 15.8548 12.2327L15.4057 10.4464Z" fill="#356C81"/>
<path d="M47.1938 7.96794V4.90308H40.4489V7.96794H37.3853V14.7116H40.4489V17.7765H47.1938V14.7116H50.2587V7.96794H47.1938ZM48.4166 12.8698H45.3518V15.9347H42.2906V12.8698H39.227V9.80986H42.2906V6.745H45.3518V9.80986H48.4166V12.8698Z" fill="#356C81"/>
</svg>
