<svg width="62" height="62" viewBox="0 0 62 62" fill="none" xmlns="http://www.w3.org/2000/svg">
<g clip-path="url(#clip0_190_88)">
<path d="M54.8512 9.34112L47.9158 7.60749L46.1817 0.671706C46.0832 0.276978 45.7283 0 45.3215 0C44.9146 0 44.5597 0.276978 44.4611 0.671843L43.0878 6.1657C41.5297 5.37829 39.8141 4.97101 38.0511 4.97797L37.908 4.97865C35.4765 4.98929 33.2355 6.26708 31.9133 8.39653C31.0351 9.81062 29.5187 10.6549 27.8567 10.6549C26.1947 10.6549 24.6781 9.81062 23.8001 8.39653C22.4779 6.26708 20.2368 4.98929 17.8055 4.97865L17.6617 4.97797C17.6449 4.97797 17.6284 4.97783 17.6115 4.97783C11.6254 4.97783 6.63703 9.82877 6.48094 15.8144C6.44874 17.0473 6.6167 18.2634 6.98236 19.4353L10.9374 31.7975C10.9406 36.6355 11.9673 43.9935 14.2343 48.8872L19.3168 59.8577C19.7543 61.1294 20.9178 61.9877 22.2295 61.9999C23.0636 62.0083 23.8441 61.6896 24.4344 61.1047C25.025 60.5196 25.3502 59.7396 25.3502 58.9083C25.3502 58.8261 25.3388 58.7442 25.3163 58.6651C24.3097 55.136 22.2926 45.1888 25.0091 41.5892C25.6854 40.6931 26.6168 40.2575 27.8567 40.2575C29.0658 40.2575 29.9776 40.6841 30.6438 41.562C33.3525 45.1307 31.3859 55.0769 30.3998 58.6082C30.3782 58.6858 30.3671 58.7662 30.3671 58.847C30.3671 60.4511 31.639 61.8608 33.2024 61.9894C33.2894 61.9964 33.3758 62 33.4618 62C34.7766 62 35.9476 61.1742 36.3811 59.9176L41.4876 48.8791C43.7491 43.9903 44.7732 36.6375 44.7761 31.7974L48.7332 19.429C49.0967 18.2634 49.2648 17.0473 49.2326 15.8145C49.2039 14.7148 49.014 13.6403 48.6685 12.6077L54.8512 11.0619C55.246 10.9633 55.523 10.6085 55.523 10.2015C55.5229 9.79452 55.2459 9.43977 54.8512 9.34112ZM47.0139 11.1928C46.6843 11.2573 46.4092 11.5067 46.3239 11.8483L45.3212 15.8593L44.9828 14.5055C44.8641 14.0304 44.3821 13.7414 43.9074 13.8602C43.4321 13.9791 43.1432 14.4606 43.2621 14.9357L44.4611 19.7311C44.5598 20.1259 44.9145 20.4028 45.3215 20.4028C45.7285 20.4028 46.0832 20.1258 46.1819 19.7309L47.3858 14.9144C47.426 15.2268 47.4511 15.5423 47.4594 15.8603C47.4864 16.8983 47.3453 17.9212 47.0419 18.8944L43.0444 31.3889C43.016 31.4771 43.0018 31.5799 43.0021 31.6727C43.0182 36.3132 42.0473 43.444 39.8777 48.134L34.7509 59.2166C34.7361 59.2485 34.7232 59.2814 34.7124 59.3149C34.5226 59.8989 33.962 60.2715 33.348 60.2212C32.7377 60.171 32.1987 59.5899 32.1454 58.9501C32.5526 57.4451 35.6901 45.278 32.0574 40.49C31.0471 39.1584 29.6337 38.4833 27.8568 38.4833C26.0479 38.4833 24.6135 39.1687 23.5934 40.5203C19.9549 45.3416 23.1556 57.5045 23.5724 59.0145C23.5474 59.3286 23.4126 59.6199 23.1863 59.8442C22.9347 60.0935 22.6023 60.228 22.2462 60.2258C21.688 60.2206 21.1697 59.8214 20.9857 59.255C20.9748 59.2213 20.9618 59.1883 20.947 59.1563L15.8439 48.1413C13.8562 43.8506 12.8726 37.5214 12.7301 32.9174C15.1584 33.7126 20.9174 35.3172 27.857 35.3172C31.3031 35.3172 34.8918 34.9103 38.5232 34.1077C39.0016 34.002 39.3035 33.5287 39.1978 33.0503C39.0922 32.5721 38.6185 32.2699 38.1405 32.3757C37.7054 32.4719 37.271 32.5621 36.8375 32.6465L38.7717 27.7383C38.9512 27.2826 38.7275 26.7676 38.2718 26.588C37.816 26.4084 37.3012 26.6322 37.1215 27.0879L34.7911 33.0015C32.4341 33.3613 30.1126 33.5433 27.857 33.5433C25.3115 33.5433 22.9141 33.3123 20.7947 32.9855L18.4705 27.0879C18.291 26.6322 17.7758 26.4084 17.3203 26.588C16.8646 26.7676 16.6409 27.2826 16.8204 27.7383L18.7468 32.6265C15.6537 32.019 13.4013 31.28 12.5369 30.9752L8.6737 18.9008C8.36821 17.9214 8.22713 16.8985 8.25428 15.8606C8.38581 10.815 12.6082 6.72839 17.6534 6.75172L17.7977 6.7524C19.6146 6.76045 21.2953 7.72483 22.2933 9.33212C23.4972 11.2711 25.577 12.4287 27.8568 12.4287C30.1366 12.4287 32.2164 11.2711 33.4204 9.33212C34.4182 7.72469 36.0989 6.76031 37.9161 6.7524L38.0597 6.75172C38.0739 6.75172 38.0878 6.75158 38.1022 6.75158C39.5459 6.75158 40.9583 7.08709 42.2441 7.7281L35.7918 9.34126C35.3969 9.43991 35.1199 9.79466 35.1199 10.2017C35.1199 10.6087 35.3969 10.9634 35.7918 11.0621L41.4143 12.4676C41.8898 12.5864 42.371 12.2973 42.4897 11.8222C42.6086 11.347 42.3196 10.8655 41.8445 10.7468L39.664 10.2017L43.6294 9.21027C43.9605 9.14546 44.2344 8.89482 44.3193 8.55494L45.3219 4.54408L46.3133 8.50923C46.3778 8.83888 46.6272 9.11395 46.9687 9.19922L50.9796 10.2018L47.0139 11.1928Z" fill="#356C81"/>
</g>
<defs>
<clipPath id="clip0_190_88">
<rect width="62" height="62" fill="white"/>
</clipPath>
</defs>
</svg>
