<svg width="58" height="58" viewBox="0 0 58 58" fill="none" xmlns="http://www.w3.org/2000/svg">
<g clip-path="url(#clip0_190_95)">
<path d="M52.6992 7.09248L29.2773 0.040334C29.2751 0.039664 29.2731 0.039128 29.271 0.038458L29.2661 0.036984C29.2643 0.036448 29.2621 0.03618 29.2602 0.035644C29.2265 0.025728 29.1916 0.018224 29.1563 0.012462C29.1473 0.010988 29.1384 0.009514 29.1296 0.008308C29.0925 0.003484 29.055 0 29.0166 0C29.0164 0 29.016 0 29.0157 0H29.0152C28.9767 0 28.9392 0.00335 28.9021 0.008174C28.8931 0.00938 28.8842 0.010854 28.8754 0.012194C28.8402 0.017956 28.8054 0.025326 28.7717 0.035108C28.7697 0.035644 28.7677 0.035912 28.7656 0.036448L28.7606 0.037922C28.7583 0.038592 28.756 0.039262 28.7537 0.039932L5.31901 7.04652C4.95051 7.15667 4.69792 7.49555 4.69752 7.88013L4.68117 25.2631C4.67004 37.042 11.029 47.9669 21.2765 53.7746L28.5324 57.8868C28.5338 57.8876 28.5353 57.8881 28.5368 57.8889C28.5673 57.9061 28.599 57.9213 28.6315 57.9347C28.6362 57.9366 28.6409 57.9381 28.6456 57.94C28.6728 57.9506 28.7007 57.9598 28.7291 57.9677C28.7379 57.9701 28.7468 57.9724 28.7557 57.9745C28.7811 57.9807 28.8068 57.9857 28.8329 57.9895C28.8416 57.9909 28.8503 57.9925 28.859 57.9936C28.8925 57.9976 28.9265 58.0001 28.961 58.0001C28.9613 58.0001 28.9616 58.0001 28.9618 58.0001C28.9964 58.0001 29.0304 57.9976 29.0639 57.9937C29.0729 57.9926 29.0816 57.9909 29.0906 57.9897C29.1165 57.9858 29.1421 57.981 29.1671 57.9748C29.1761 57.9727 29.1849 57.9704 29.1938 57.968C29.2221 57.9602 29.2497 57.9511 29.2766 57.9406C29.2814 57.9388 29.2862 57.9373 29.2911 57.9353C29.3236 57.922 29.3551 57.9069 29.3854 57.8899C29.3869 57.889 29.3883 57.8885 29.3898 57.8877L36.6536 53.7892C46.9121 48.0008 53.2915 37.0878 53.3027 25.3091L53.319 7.92757C53.3195 7.54272 53.0675 7.20343 52.6992 7.09248ZM6.42317 25.2648L6.43884 8.5299L28.1428 2.04082L28.1405 4.52384L9.43629 10.1161C9.06779 10.2262 8.8152 10.5651 8.8148 10.9497L8.8014 25.267C8.79175 35.5633 14.3503 45.1132 23.3082 50.1899L28.0948 52.9028L28.0923 55.635L22.1355 52.259C12.4332 46.7604 6.41258 36.4169 6.42317 25.2648ZM51.5608 25.3072C51.5502 36.4592 45.5102 46.7916 35.7976 52.2719L29.8343 55.6366L29.8368 52.9044L34.6288 50.2005C43.5961 45.1406 49.1728 35.6012 49.1824 25.3051L49.1866 20.8791C49.187 20.398 48.7974 20.0077 48.3164 20.0073C48.3161 20.0073 48.3158 20.0073 48.3156 20.0073C47.8349 20.0073 47.445 20.3967 47.4446 20.8775L47.4404 25.3035C47.4313 34.9729 42.1942 43.9316 33.7727 48.6835L28.9672 51.395L24.1672 48.6745C15.7547 43.9068 10.5343 34.9383 10.5434 25.2689L10.5563 11.5996L29.0099 6.08226L47.4533 11.6352L47.4501 15.0719C47.4495 15.553 47.8392 15.9433 48.3203 15.9437C48.3205 15.9437 48.3208 15.9437 48.3211 15.9437C48.8017 15.9437 49.1915 15.5543 49.1921 15.0735L49.196 10.9888C49.1964 10.6041 48.9443 10.2648 48.5761 10.154L29.8825 4.52558L29.8848 2.04256L51.5763 8.57372L51.5608 25.3072ZM35.2609 11.2522C35.2525 11.2522 35.2439 11.2522 35.2354 11.2522L35.1467 11.2525C33.5469 11.258 32.0725 12.0956 31.2028 13.493C30.7262 14.2588 29.9046 14.7157 29.0044 14.7157C29.0036 14.7157 29.0027 14.7157 29.0019 14.7157C28.1006 14.7149 27.2788 14.2563 26.8034 13.4888C25.9364 12.0897 24.4636 11.2494 22.8646 11.2409L22.7759 11.2403C22.7627 11.2403 22.7503 11.2403 22.7371 11.2403C18.905 11.2403 15.7095 14.3442 15.6056 18.177C15.5845 18.9666 15.6914 19.7457 15.9255 20.4989L18.3201 28.0077C18.3267 31.0004 18.9599 35.5211 20.3554 38.5408L23.4485 45.2337C23.7646 46.1338 24.594 46.7408 25.5294 46.7502C25.5373 46.7503 25.545 46.7503 25.5527 46.7503C26.1407 46.7503 26.6939 46.5232 27.1124 46.1092C27.5365 45.6898 27.7703 45.1304 27.7708 44.5339C27.771 44.4533 27.7597 44.3729 27.7377 44.2953C27.1378 42.1802 25.927 36.2339 27.5061 34.1467C27.8577 33.682 28.3264 33.4655 28.9813 33.4655C28.9822 33.4655 28.9833 33.4655 28.9841 33.4655C29.6218 33.4661 30.0795 33.6785 30.4246 34.1339C31.9963 36.2083 30.8035 42.1501 30.2112 44.2645C30.1899 44.3407 30.1791 44.4196 30.1789 44.4988C30.1779 45.6463 31.0897 46.6558 32.2117 46.7492C32.2748 46.7545 32.3374 46.7571 32.3999 46.7571C33.3367 46.7571 34.1719 46.1726 34.4879 45.281L37.6083 38.5523C39.0063 35.538 39.6466 31.0215 39.6584 28.0281L42.0692 20.5177C42.3026 19.771 42.411 18.9921 42.3912 18.2024C42.295 14.3647 39.0984 11.2522 35.2609 11.2522ZM40.4086 19.9912L37.9583 27.625C37.9306 27.7117 37.9164 27.8086 37.9166 27.8997C37.9237 30.7006 37.3358 34.9994 36.0282 37.8191L32.8884 44.5893C32.8738 44.6208 32.8611 44.6531 32.8504 44.6859C32.7815 44.8971 32.5786 45.0308 32.3562 45.013C32.1624 44.9968 31.9719 44.7975 31.9295 44.5858C32.3 43.2187 34.0832 36.0796 31.8136 33.0826C31.1411 32.1946 30.1633 31.7245 28.9857 31.7234C28.9842 31.7234 28.9829 31.7234 28.9815 31.7234C27.7862 31.7234 26.7956 32.1982 26.1162 33.0964C23.837 36.1106 25.6449 43.2541 26.0203 44.622C26.0024 44.7158 25.9567 44.8019 25.8873 44.8706C25.7962 44.9606 25.6729 45.0068 25.5471 45.0082C25.3454 45.006 25.1564 44.8554 25.0871 44.6418C25.0765 44.6087 25.0638 44.5763 25.0492 44.5447L21.9366 37.8098C20.8085 35.3686 20.2215 31.824 20.0906 29.0966C21.786 29.6173 25.0852 30.4425 28.9869 30.4463C28.9953 30.4463 29.0036 30.4463 29.0122 30.4463C31.1344 30.4463 33.3432 30.1972 35.5773 29.7056C36.0471 29.6023 36.3442 29.1376 36.2408 28.6678C36.1375 28.1981 35.6739 27.9007 35.203 28.0042C35.1375 28.0186 35.0722 28.0308 35.0068 28.0448L35.968 25.6126C36.1448 25.1653 35.9255 24.6593 35.4781 24.4825C35.0308 24.3056 34.525 24.5249 34.348 24.9724L32.9909 28.4075C31.6391 28.6038 30.3076 28.7045 29.0125 28.7045C29.0046 28.7045 28.9965 28.7045 28.9886 28.7045C27.5252 28.7032 26.143 28.5754 24.9094 28.3918L23.5618 24.9624C23.3857 24.5148 22.8805 24.2945 22.4324 24.4704C21.9847 24.6463 21.7646 25.1519 21.9404 25.5996L22.8923 28.0219C21.4783 27.7139 20.4204 27.3799 19.8903 27.1984L17.587 19.9759C17.4116 19.4118 17.331 18.8223 17.3471 18.2241C17.4254 15.3277 19.8403 12.9825 22.7357 12.9825C22.7454 12.9825 22.7552 12.9825 22.765 12.9826L22.8544 12.9831C23.8508 12.9885 24.7734 13.5206 25.3225 14.4066C26.1175 15.6897 27.4922 16.4565 29.0003 16.458C29.0018 16.458 29.003 16.458 29.0043 16.458C30.5105 16.458 31.885 15.6939 32.6817 14.4136C33.2324 13.5286 34.1561 12.9981 35.1604 12.9946L35.2405 12.9944C35.2471 12.9944 35.2533 12.9944 35.2598 12.9944C38.1608 12.9944 40.5771 15.3465 40.65 18.2461C40.665 18.8441 40.5831 19.4335 40.4086 19.9912Z" fill="#356C81"/>
</g>
<defs>
<clipPath id="clip0_190_95">
<rect width="58" height="58" fill="white"/>
</clipPath>
</defs>
</svg>
