<svg width="62" height="62" viewBox="0 0 62 62" fill="none" xmlns="http://www.w3.org/2000/svg">
<g clip-path="url(#clip0_190_117)">
<path d="M39.7976 31.6233L40.1383 31.2825C41.2706 30.1502 41.8942 28.6449 41.8942 27.044C41.8942 25.8504 41.547 24.7102 40.9014 23.7379L49.6107 15.03C50.9748 16.0274 52.5923 16.5264 54.2096 16.5264C56.2056 16.5264 58.2014 15.7669 59.7203 14.2479C59.7204 14.2479 59.7204 14.2479 59.7204 14.2479C62.7599 11.2085 62.7599 6.26299 59.7203 3.22341C56.6824 0.185404 51.7378 0.185162 48.6974 3.22341C45.9462 5.97454 45.6855 10.2872 47.915 13.3349L39.2052 22.0435C36.8795 20.5055 33.7091 20.7593 31.6627 22.8056L31.3214 23.147L30.3439 22.1695C29.2115 21.0372 27.7062 20.4134 26.1054 20.4134C24.9119 20.4134 23.7716 20.7606 22.7991 21.4063L16.6479 15.2535C14.7362 13.3419 11.8789 12.5987 9.19071 13.3142C7.18019 13.8477 5.0809 13.2022 3.71315 11.6299C1.93076 9.57661 1.96152 6.50603 3.7852 4.48775C4.826 3.33566 6.25103 2.70137 7.79777 2.70137C8.45991 2.70137 8.99648 2.16469 8.99648 1.50266C8.99648 0.840644 8.45991 0.303955 7.79777 0.303955C5.59664 0.303955 3.48561 1.24316 2.00621 2.88071C-0.628799 5.79726 -0.673361 10.2341 1.9034 13.2026C3.87711 15.471 6.90506 16.4016 9.80648 15.6311C11.6717 15.1349 13.6433 15.6397 14.9525 16.9488L21.1048 23.1026C19.5677 25.4284 19.8216 28.5993 21.8668 30.6462L22.8445 31.6237L8.65766 45.8108C8.18951 46.279 8.18951 47.038 8.65766 47.506C9.12581 47.9741 9.8847 47.9743 10.353 47.506L33.3582 24.5008C34.7598 23.0989 37.041 23.0989 38.4428 24.5008C39.8452 25.9032 39.8452 28.1848 38.4423 29.5878L9.22825 58.802L4.14339 53.7157L7.11674 50.7426C7.58489 50.2745 7.58489 49.5155 7.11674 49.0474C6.64859 48.5793 5.88969 48.5793 5.42142 49.0474L1.60066 52.8682C1.13251 53.3363 1.13251 54.0952 1.60066 54.5634L8.38059 61.345C8.60534 61.5699 8.91014 61.6962 9.22813 61.6962C9.546 61.6962 9.85092 61.5699 10.0758 61.3453L32.1691 39.2535L38.1024 33.319L57.8632 53.0797L52.7769 58.1662L35.2291 40.6177C34.7608 40.1496 34.0019 40.1494 33.5338 40.6177C33.0656 41.0859 33.0656 41.8449 33.5338 42.3129L51.9295 60.7087C52.1544 60.9335 52.4592 61.0598 52.7773 61.0598C53.0954 61.0598 53.3999 60.9335 53.6251 60.7087L60.4067 53.927C60.8748 53.4589 60.8748 52.6999 60.4067 52.2318L39.7976 31.6233ZM50.3926 4.91909C51.4452 3.86715 52.8273 3.34111 54.2096 3.34111C55.5915 3.34111 56.9735 3.86715 58.0252 4.91885C60.13 7.02346 60.13 10.4481 58.0252 12.553C55.9217 14.6566 52.4974 14.6564 50.3929 12.553C48.2881 10.448 48.2881 7.02334 50.3926 4.91909ZM24.5397 29.9285L23.5625 28.9515C22.1613 27.5491 22.1613 25.2676 23.5617 23.8652C23.5618 23.8651 23.562 23.8651 23.562 23.8648C23.5621 23.8647 23.5624 23.8645 23.5624 23.8644C24.2421 23.1851 25.145 22.811 26.1055 22.811C27.0659 22.811 27.9691 23.1851 28.6486 23.8647L29.626 24.8422L24.5397 29.9285Z" fill="#356C81"/>
</g>
<defs>
<clipPath id="clip0_190_117">
<rect width="62" height="62" fill="white"/>
</clipPath>
</defs>
</svg>
