<svg width="70" height="70" viewBox="0 0 70 70" fill="none" xmlns="http://www.w3.org/2000/svg">
<path fill-rule="evenodd" clip-rule="evenodd" d="M27.505 0H27.5C25.0684 0.000839233 22.7299 0.934738 20.9669 2.60938C19.2038 4.28401 18.1508 6.57166 18.025 9H10C9.20435 9 8.44131 9.3163 7.87869 9.87891C7.31607 10.4415 7 11.2043 7 12V13H4C2.93915 13 1.92172 13.4212 1.17157 14.1714C0.421417 14.9215 0 15.9391 0 17V66C0 67.0609 0.421417 68.0785 1.17157 68.8286C1.92172 69.5788 2.93915 70 4 70H50.543L49.514 68H4C3.46957 68 2.96085 67.7891 2.58578 67.4141C2.21072 67.039 2 66.5304 2 66V17C2 16.4696 2.21072 15.961 2.58578 15.5859C2.96085 15.2109 3.46957 15 4 15H7V17C7 17.7957 7.31607 18.5585 7.87869 19.1211C8.44131 19.6837 9.20435 20 10 20H45C45.7957 20 46.5587 19.6837 47.1213 19.1211C47.6839 18.5585 48 17.7957 48 17V15H51C51.5304 15 52.0392 15.2109 52.4142 15.5859C52.7893 15.961 53 16.4696 53 17V18H55V17C55 15.9391 54.5786 14.9215 53.8284 14.1714C53.0783 13.4212 52.0609 13 51 13H48V12C48 11.2043 47.6839 10.4415 47.1213 9.87891C46.5587 9.3163 45.7957 9 45 9H36.975C36.8492 6.57253 35.7969 4.28584 34.035 2.61133C32.273 0.936813 29.9357 0.00212097 27.505 0ZM70 35C70 34.4696 69.7893 33.961 69.4142 33.5859C69.0392 33.2109 68.5304 33 68 33H66V30C66 29.4696 65.7893 28.961 65.4142 28.5859C65.0392 28.2109 64.5304 28 64 28H63V24C63 23.4696 62.7893 22.961 62.4142 22.5859C62.0392 22.2109 61.5304 22 61 22H55C54.4696 22 53.9608 22.2109 53.5858 22.5859C53.2107 22.961 53 23.4696 53 24V28H52C51.4696 28 50.9608 28.2109 50.5858 28.5859C50.2107 28.961 50 29.4696 50 30V58L56 70H60L66 58V35H68V50.1001C67.7092 50.2017 67.4569 50.3904 67.2779 50.6411C67.0988 50.8918 67.0018 51.192 67 51.5V52.5C67 52.8978 67.158 53.2792 67.4393 53.5605C67.7206 53.8419 68.1022 54 68.5 54C68.8978 54 69.2794 53.8419 69.5607 53.5605C69.842 53.2792 70 52.8978 70 52.5V35ZM21.2929 60.707C21.1054 60.5195 21 60.2652 21 60C21 59.7348 21.1054 59.4805 21.2929 59.293C21.4804 59.1054 21.7348 59 22 59H33C33.2652 59 33.5196 59.1054 33.7071 59.293C33.8946 59.4805 34 59.7348 34 60C34 60.2652 33.8946 60.5195 33.7071 60.707C33.5196 60.8946 33.2652 61 33 61H22C21.7348 61 21.4804 60.8946 21.2929 60.707ZM37.7071 56.707C37.5196 56.8946 37.2652 57 37 57H18C17.7348 57 17.4804 56.8946 17.2929 56.707C17.1054 56.5195 17 56.2652 17 56C17 55.7348 17.1054 55.4805 17.2929 55.293C17.4804 55.1054 17.7348 55 18 55H37C37.2652 55 37.5196 55.1054 37.7071 55.293C37.8946 55.4805 38 55.7348 38 56C38 56.2652 37.8946 56.5195 37.7071 56.707ZM27.5 29.1401C29.1913 27.7526 31.3123 26.9959 33.5 27C35.5141 27.0001 37.4761 27.6402 39.1026 28.8281C40.7291 30.016 41.936 31.6903 42.549 33.6089C43.162 35.5275 43.1493 37.591 42.5128 39.502C41.8763 41.4129 40.649 43.0724 39.008 44.2402V44.25L38.874 44.3398C38.812 44.3798 38.747 44.42 38.683 44.46L28.583 51H26.425L16.325 44.46C16.2803 44.432 16.235 44.404 16.1907 44.376C16.1716 44.3639 16.1527 44.3519 16.134 44.3398L16 44.25V44.2402C14.9445 43.5095 14.0481 42.5722 13.3649 41.4854C12.6817 40.3985 12.2258 39.1844 12.0249 37.9165C11.824 36.6486 11.8821 35.3528 12.1958 34.1079C12.5095 32.8631 13.0722 31.6946 13.8501 30.6733C14.6279 29.652 15.6046 28.7993 16.7213 28.166C17.838 27.5327 19.0715 27.1321 20.3472 26.9888C21.623 26.8454 22.9145 26.9623 24.1439 27.332C25.3733 27.7018 26.515 28.3169 27.5 29.1401ZM64 35H52V56H64V35ZM54.2929 50.707C54.1054 50.5195 54 50.2652 54 50V39C54 38.7348 54.1054 38.4805 54.2929 38.293C54.4804 38.1054 54.7348 38 55 38C55.2652 38 55.5196 38.1054 55.7071 38.293C55.8946 38.4805 56 38.7348 56 39V50C56 50.2652 55.8946 50.5195 55.7071 50.707C55.5196 50.8946 55.2652 51 55 51C54.7348 51 54.4804 50.8946 54.2929 50.707ZM64 30H52V33H64V30ZM61 24H55V28H61V24ZM54.645 63H61.355L63.71 58H52.29L54.645 63ZM57 68H59L60.413 65H55.587L57 68ZM37.746 42.6899V42.6802C38.6464 42.0658 39.402 41.2623 39.9604 40.3262C40.5187 39.39 40.8662 38.3435 40.9788 37.2593C41.0913 36.1751 40.9662 35.0792 40.6122 34.0483C40.2581 33.0174 39.6835 32.0763 38.9286 31.29C38.1736 30.5038 37.2563 29.8917 36.2406 29.4961C35.2249 29.1005 34.1352 28.931 33.0473 28.9995C31.9594 29.0681 30.8996 29.3732 29.9416 29.8931C28.9835 30.413 28.1503 31.135 27.5 32.0098C26.8504 31.1392 26.0193 30.4204 25.0643 29.9028C24.1093 29.3853 23.0532 29.0817 21.9691 29.0127C20.8851 28.9437 19.799 29.1111 18.7861 29.5034C17.7732 29.8957 16.8577 30.5035 16.1029 31.2847C15.3482 32.0659 14.7722 33.0015 14.415 34.0273C14.0578 35.0531 13.9278 36.1446 14.0341 37.2256C14.1403 38.3066 14.4803 39.3515 15.0304 40.2881C15.5805 41.2247 16.3276 42.0306 17.22 42.6499V42.6602L17.249 42.6802C17.314 42.7202 17.382 42.7601 17.449 42.8101L27 49H28L37.746 42.6899ZM32.002 35.0049C32.2657 35.0049 32.5191 35.1071 32.709 35.29C32.802 35.3824 32.8757 35.4923 32.926 35.6133C32.9763 35.7343 33.0023 35.8641 33.0023 35.9951C33.0023 36.1262 32.9763 36.256 32.926 36.377C32.8757 36.4979 32.802 36.6078 32.709 36.7002L27.691 41.7002C27.5035 41.8877 27.2492 41.9927 26.984 41.9927C26.7188 41.9927 26.4645 41.8877 26.277 41.7002L23.267 38.6802C23.1743 38.5887 23.1008 38.4795 23.0506 38.3594C23.0004 38.2392 22.9745 38.1102 22.9745 37.98C22.9745 37.8498 23.0004 37.7207 23.0506 37.6006C23.1008 37.4804 23.1743 37.3713 23.267 37.2798C23.4545 37.0923 23.7088 36.9873 23.974 36.9873C24.2392 36.9873 24.4935 37.0923 24.681 37.2798L26.986 39.5898L31.295 35.29C31.4849 35.1071 31.7383 35.0049 32.002 35.0049ZM46 17V12C46 11.7348 45.8946 11.4805 45.7071 11.293C45.5196 11.1054 45.2652 11 45 11H34.851C35.0722 9.91074 35.0485 8.78603 34.7816 7.70703C34.5148 6.62804 34.0115 5.62184 33.308 4.76123C32.6046 3.90062 31.7187 3.20718 30.7144 2.73096C29.7101 2.25473 28.6125 2.00732 27.501 2.00732C26.3895 2.00732 25.2919 2.25473 24.2876 2.73096C23.2833 3.20718 22.3974 3.90062 21.6939 4.76123C20.9905 5.62184 20.4872 6.62804 20.2203 7.70703C19.9535 8.78603 19.9298 9.91074 20.151 11H10C9.73477 11 9.48044 11.1054 9.29291 11.293C9.10538 11.4805 9 11.7348 9 12V17C9 17.2652 9.10538 17.5195 9.29291 17.707C9.48044 17.8946 9.73477 18 10 18H45C45.2652 18 45.5196 17.8946 45.7071 17.707C45.8946 17.5195 46 17.2652 46 17ZM24.9999 5.7583C25.74 5.26384 26.61 5 27.5 5C28.6935 5 29.8381 5.47395 30.682 6.31787C31.5259 7.16179 32 8.30652 32 9.5C32 10.39 31.7361 11.26 31.2416 12C30.7471 12.74 30.0443 13.3166 29.2221 13.6572C28.3998 13.9978 27.495 14.0872 26.6221 13.9136C25.7492 13.7399 24.9474 13.3115 24.318 12.6821C23.6887 12.0528 23.2601 11.2508 23.0865 10.3779C22.9128 9.50502 23.0019 8.6001 23.3425 7.77783C23.6831 6.95557 24.2599 6.25276 24.9999 5.7583ZM26.1111 11.5786C26.5222 11.8533 27.0056 12 27.5 12C28.1631 12 28.7989 11.7364 29.2678 11.2676C29.7366 10.7987 30 10.163 30 9.5C30 9.00555 29.8534 8.52196 29.5787 8.11084C29.304 7.69972 28.9135 7.37965 28.4567 7.19043C27.9999 7.00121 27.4972 6.95139 27.0123 7.04785C26.5273 7.14432 26.0819 7.3828 25.7322 7.73242C25.3826 8.08205 25.1445 8.52725 25.048 9.01221C24.9516 9.49716 25.0011 9.99973 25.1903 10.4565C25.3795 10.9134 25.7 11.3039 26.1111 11.5786Z" fill="#356C81"/>
</svg>
