<svg width="71" height="70" viewBox="0 0 71 70" fill="none" xmlns="http://www.w3.org/2000/svg">
<path fill-rule="evenodd" clip-rule="evenodd" d="M55.0731 23.5557C55.6775 22.6512 56 21.5878 56 20.5C56 19.0413 55.4207 17.6423 54.3892 16.6108C53.3577 15.5794 51.9587 15 50.5 15C49.4122 15 48.3489 15.3224 47.4444 15.9268C46.5399 16.5311 45.835 17.39 45.4187 18.395C45.0024 19.4 44.8935 20.5059 45.1057 21.5728C45.3179 22.6396 45.8418 23.62 46.611 24.3892C47.3801 25.1584 48.3602 25.6823 49.427 25.8945C50.494 26.1068 51.5999 25.9978 52.6047 25.5815C53.6097 25.1653 54.4688 24.4601 55.0731 23.5557ZM57.1395 63.2005C56.4427 63.4375 55.7214 63.6829 55 64.02C52.9871 64.9696 52.9917 65.9753 52.9987 67.483C52.9995 67.6582 53.0004 67.8403 52.998 68.0298C52.99 68.4098 52.99 68.71 52.99 68.96C52.9911 68.97 52.998 68.99 52.998 69C52.998 69.2652 52.8927 69.5195 52.7051 69.707C52.5176 69.8946 52.2633 70 51.998 70C51.7328 70 51.4785 69.8946 51.291 69.707C51.1034 69.5195 50.998 69.2652 50.998 69C50.9994 68.9864 51.0024 68.9729 51.0071 68.96C51.011 68.384 51.0159 67.8304 51.022 67.3316C51.0266 66.9469 51.032 66.5948 51.0381 66.29C51.0881 63.7853 52.1062 63.1551 52.9264 62.6474L53.019 62.5898C53.4296 62.3339 54.588 61.9495 55.7704 61.5572C56.9899 61.1526 58.2349 60.7396 58.7111 60.4502C59.6438 59.8834 61.4012 57.2992 62.1899 56.1395L62.2031 56.1201C62.5406 55.6238 63.2567 54.6339 64.0037 53.6014C64.9875 52.2415 66.0249 50.8076 66.321 50.3301C67.2812 48.9728 68.1021 47.5221 68.771 46C68.9915 43.784 69.0613 41.5556 68.98 39.3301C68.98 38.6578 68.985 37.723 68.9904 36.7105C69.0026 34.4098 69.0168 31.7075 68.98 30.77C68.927 29.42 68.4071 29 67.416 29C66.425 29 65.9561 30.2002 65.8521 31.2402C65.8202 31.5588 65.759 32.4459 65.6804 33.5849C65.5024 36.1644 65.2352 40.0355 65.0181 41.52C64.8267 42.9807 64.2511 44.3643 63.3501 45.5298C62.9834 45.9236 62.2739 46.7285 61.5374 47.5641C60.7028 48.511 59.8333 49.4975 59.3881 49.9702C59.0834 50.2903 58.7393 50.6909 58.3936 51.0933C57.6162 51.9982 56.8311 52.9123 56.469 52.9399C56.1366 52.9511 55.8104 52.8481 55.5447 52.6479C55.2791 52.4478 55.09 52.1625 55.009 51.8398C55.2037 51.204 55.5637 50.6315 56.052 50.1802C56.3699 49.8099 57.3633 48.765 58.4312 47.6419C59.6414 46.3691 60.9471 44.9958 61.4731 44.3901C62.3986 43.4388 62.9214 42.167 62.9331 40.8398C62.9309 40.7904 62.929 40.7419 62.927 40.6942C62.8818 39.585 62.8563 38.96 61.2571 38.96C60.0166 38.96 58.4176 40.5696 57.1608 41.8347C56.7277 42.2707 56.3352 42.6657 56.0121 42.9399C55.0331 43.7799 51.1591 47.3898 48.933 49.7598C48.6019 50.1109 48.1644 50.5444 47.6791 51.0254C46.2431 52.4484 44.3874 54.2874 43.6221 55.6401C42.7448 57.3909 42.2021 59.2902 42.022 61.2402C41.9951 62.0002 41.9821 65.5999 41.9761 68.8799C41.9865 68.9194 41.9944 68.9596 42.0001 69C42.0001 69.2652 41.8947 69.5195 41.7072 69.707C41.5196 69.8946 41.2653 70 41.0001 70C40.7349 70 40.4805 69.8946 40.293 69.707C40.1054 69.5195 40.0001 69.2652 40.0001 69V68.0298C40.0001 68.0298 40.0121 63.82 40.0001 61.02C39.988 58.22 41.4131 54.4302 45.1451 50.7202C46.1502 49.7234 47.0513 48.8176 47.8954 47.9692C50.4299 45.4216 52.4507 43.3905 55.23 40.96C55.7574 40.4979 56.2367 40.0175 56.6948 39.5583C58.5867 37.6623 60.1193 36.1263 63.2001 37.7202C63.2001 37.7202 63.6001 33.24 64 30C64.0413 29.5301 64.181 29.0739 64.4103 28.6616C64.6395 28.2493 64.953 27.89 65.3303 27.6069C65.7078 27.3239 66.1405 27.1237 66.6006 27.019C67.0605 26.9144 67.5374 26.908 68 27C68.0269 27.0023 68.056 27.0045 68.0873 27.0069C68.8785 27.0671 71 27.2287 71 31V44C70.9482 46.1581 70.2516 48.2509 69 50.0098C67.348 52.5298 62.5071 59.23 61 61.02C59.9768 62.2353 58.613 62.6993 57.1395 63.2005ZM30.998 70C31.2632 70 31.5176 69.8946 31.7051 69.707C31.8927 69.5195 31.998 69.2652 31.998 69V68C31.998 68 31.986 63.8 31.998 61C32.0101 58.2 30.5851 54.41 26.8531 50.71C25.8496 49.7147 24.9498 48.8103 24.1068 47.9631C21.5704 45.4137 19.549 43.382 16.7681 40.9502C16.2457 40.4917 15.7703 40.0155 15.3157 39.5601C13.4205 37.6617 11.8846 36.1233 8.79803 37.7202C8.79803 37.7202 8.39807 33.24 7.99805 30C7.95679 29.5301 7.81708 29.0739 7.58783 28.6616C7.35858 28.2493 7.0451 27.89 6.66772 27.6069C6.29034 27.3239 5.85754 27.1237 5.39758 27.019C4.93762 26.9144 4.46069 26.908 3.99805 27C3.97119 27.0023 3.94208 27.0045 3.91089 27.0069C3.13342 27.0661 1.07233 27.223 1 30.8042L0.998047 31C0.998047 30.9336 0.998718 30.8683 1 30.8042L1.00006 44C1.05365 46.1547 1.75018 48.2441 3.00006 50C4.65106 52.52 9.49304 59.21 11.0001 61C12.0233 62.2153 13.3871 62.6792 14.8605 63.1805C15.5573 63.4175 16.2786 63.6629 17.0001 64C19.014 64.9411 19.0084 65.9545 19 67.4579C18.999 67.6318 18.998 67.8123 19.0001 68C19.0001 68.242 19.0026 68.451 19.0049 68.6338C19.0063 68.7531 19.0077 68.8612 19.0081 68.96C19.0081 68.97 19.0001 68.99 19.0001 69C19.0001 69.2652 19.1054 69.5195 19.293 69.707C19.4805 69.8946 19.7349 70 20.0001 70C20.2653 70 20.5196 69.8946 20.7072 69.707C20.8947 69.5195 21.0001 69.2652 21.0001 69C20.9987 68.9864 20.9957 68.9729 20.9911 68.96C20.9841 67.93 20.9741 66.97 20.9601 66.27C20.9102 63.7638 19.8986 63.1384 19.0797 62.6322L18.9791 62.5698C18.5684 62.3138 17.4095 61.9292 16.2269 61.5368C15.0079 61.1324 13.7637 60.7195 13.287 60.4302C12.3544 59.864 10.601 57.2854 9.8111 56.1237L9.79504 56.1001C9.4516 55.595 8.71545 54.5788 7.95392 53.5274C6.98145 52.185 5.96759 50.7853 5.67706 50.3198C4.72064 48.9601 3.90009 47.5103 3.22705 45.9902C3.00659 43.7742 2.93683 41.5453 3.01807 39.3198C3.01807 38.6513 3.01324 37.7201 3.008 36.7104C2.99603 34.4123 2.98193 31.7079 3.01807 30.77C3.07007 29.42 3.59204 29 4.58203 29C5.57202 29 6.04205 30.2002 6.14606 31.2402C6.17792 31.5586 6.23907 32.444 6.31763 33.5808C6.49567 36.1572 6.76288 40.0249 6.98004 41.5098C7.17358 42.9699 7.74896 44.3534 8.64807 45.52C9.01825 45.9129 9.73798 46.7294 10.4823 47.5737C11.3104 48.513 12.1688 49.4868 12.61 49.9502C12.9151 50.2706 13.26 50.6727 13.6064 51.0766C14.3843 51.9834 15.17 52.8992 15.5291 52.9199C15.8607 52.9348 16.1873 52.8344 16.4533 52.6357C16.7193 52.437 16.9082 52.1523 16.988 51.8301C16.7968 51.19 16.4369 50.6133 15.946 50.1602C15.6479 49.8172 14.7555 48.8789 13.7648 47.8373C12.5021 46.5098 11.0798 45.0145 10.5251 44.3701C9.59851 43.4236 9.07513 42.1546 9.06506 40.8301L9.07123 40.6826C9.11627 39.5745 9.14172 38.9502 10.7411 38.9502C11.9828 38.9502 13.5821 40.5609 14.8384 41.8263C15.2708 42.2617 15.6625 42.6562 15.985 42.9302C16.97 43.7702 20.8391 47.3702 23.0651 49.7402C23.3972 50.0932 23.837 50.5292 24.3252 51.0133C25.7598 52.4356 27.6121 54.272 28.376 55.6299C29.2545 57.3766 29.7973 59.2732 29.9761 61.2202C30.0031 61.9802 30.0161 65.5999 30.022 68.8799C30.0117 68.9194 30.0037 68.9596 29.998 69C29.998 69.2652 30.1034 69.5195 30.291 69.707C30.4785 69.8946 30.7328 70 30.998 70ZM31.998 0C29.6578 0.0617981 27.4289 1.01215 25.7639 2.65771C24.0988 4.30328 23.1224 6.52055 23.0331 8.85986H23.0001V10.8799C23.0176 10.8849 23.0356 10.8849 23.0536 10.885C23.0716 10.8851 23.0896 10.8851 23.1071 10.8901C23.4354 13.2702 24.6456 15.4402 26.498 16.9702C22.123 17.1002 17.0361 18.14 16.998 24C16.9582 26.1151 17.3856 28.2127 18.2499 30.1436C19.1143 32.0744 20.394 33.7907 21.998 35.1699V40C21.998 40.2652 22.1034 40.5195 22.291 40.707C22.4785 40.8946 22.7328 41 22.998 41C23.2632 41 23.5176 40.8946 23.7051 40.707C23.8927 40.5195 23.998 40.2652 23.998 40V36.73C25.5467 37.7759 27.2283 38.6099 28.998 39.21C31.6429 40.0929 38.7787 40.0406 42.8999 40.0105L42.998 40.0098V40H49.498C50.6915 40 51.8362 39.526 52.6801 38.6821C53.5239 37.8382 53.998 36.6935 53.998 35.5C53.998 34.3065 53.5239 33.1618 52.6801 32.3179C51.8362 31.474 50.6915 31 49.498 31H40.8C38.8577 30.9828 36.9202 30.8021 35.0081 30.46C34.7221 30.3985 34.4622 30.3192 34.2037 30.2404C34.1259 30.2167 34.0482 30.1931 33.97 30.1699C33.9858 30.1144 33.9958 30.0575 34.0001 30V25.3999L39.2341 20.1499C40.0667 20.3324 40.8872 20.5664 41.691 20.8501L36.946 29H39.519L43.2241 22.2998C43.4629 23.3102 43.9105 24.2598 44.5381 25.0869C45.1658 25.914 45.9595 26.6005 46.8684 27.1025C47.7773 27.6045 48.7811 27.9106 49.8154 28.0015C50.8497 28.0923 51.8916 27.9658 52.874 27.6299L51.868 29.46C52.4979 29.7122 53.0837 30.0633 53.603 30.5L57.3831 23.6401L57.347 23.6201C58.1299 21.8706 58.2133 19.8876 57.5798 18.0786C56.9465 16.2696 55.6447 14.7718 53.9414 13.8926C52.2383 13.0134 50.2632 12.8192 48.4217 13.3506C46.5801 13.882 45.0119 15.0986 44.0391 16.75C44.0325 16.7648 44.0234 16.7784 44.0121 16.79C43.9121 16.97 43.82 17.1498 43.733 17.3398L42.803 18.9399C40.8393 18.3347 38.8375 17.8605 36.811 17.52C38.1135 16.6293 39.1768 15.4318 39.9073 14.0332C40.6378 12.6346 41.0131 11.0778 41.0001 9.5C41.0657 7.04694 40.1545 4.66817 38.4668 2.88672C36.7791 1.10527 34.4531 0.0669861 32.0001 0H31.998ZM45.787 44.6802L45.7421 44.6499C44.6962 46.2468 43.0797 47.3839 41.2231 47.8281C39.3666 48.2724 37.4105 47.9905 35.7551 47.04C34.8677 46.478 34.1038 45.7414 33.5099 44.875C32.916 44.0086 32.5043 43.0304 32.3 42H34.2321C34.5128 43.0022 35.0734 43.9035 35.848 44.5986C36.6227 45.2938 37.5793 45.7538 38.606 45.9248C39.6326 46.0958 40.6868 45.9709 41.6449 45.5645C42.603 45.158 43.4255 44.4869 44.0161 43.6299L43.9911 43.6099L44.084 43.6401L44.9841 42H47.264L45.787 44.6802ZM32.7861 2.20996C32.5261 2.16473 32.2636 2.13484 32.0001 2.12012C30.1954 2.17508 28.4781 2.90909 27.1911 4.17529C25.9041 5.4415 25.1423 7.14673 25.058 8.9502C26.9065 8.82809 28.6638 8.1024 30.0599 6.88477C31.4561 5.66713 32.4138 4.02469 32.7861 2.20996ZM36.4365 6.1958C37.0892 7.17914 37.9402 8.01489 38.9351 8.6499C38.8099 7.46327 38.3999 6.32472 37.7401 5.33057C37.0802 4.33641 36.1899 3.51611 35.1451 2.93994C35.3439 4.1033 35.7838 5.21246 36.4365 6.1958ZM38.873 10.8999C36.5403 9.74689 34.7183 7.76942 33.7601 5.3501C32.9312 6.95297 31.7006 8.31329 30.1887 9.29834C28.6768 10.2834 26.9351 10.8596 25.134 10.9702C25.3517 12.6436 26.1732 14.1797 27.4439 15.29C28.7146 16.4004 30.347 17.0081 32.0345 16.9995C33.7219 16.9909 35.3481 16.3664 36.6074 15.2432C37.8666 14.1199 38.6724 12.5754 38.873 10.8999ZM32.9501 23.6602L36.9091 19.6899C34.967 19.3513 33.0071 19.1241 31.0391 19.0098L30.9082 19.0018C29.9492 18.9429 28.7524 18.8694 27.4771 18.8599L32.9501 23.6602ZM37.8881 32.8901C35.4484 32.6873 33.0566 32.0966 30.803 31.1401H30.8C28.6708 30.2883 26.803 28.8913 25.384 27.0898C25.001 26.4798 24.781 25.6198 25.246 25.2798C25.617 25.0198 26.3561 24.5599 27.2961 25.8999C28.4985 27.5126 30.1257 28.7592 31.996 29.5V25.4302L24.6551 18.9902C23.8851 19.0777 23.1235 19.2279 22.3781 19.4399C19.465 20.3099 18.991 22.0999 18.912 24.1499C19.081 27.5169 20.4669 30.708 22.8121 33.1299C24.8485 35.0761 27.3127 36.518 30.0071 37.3398C32.0001 37.9398 36.7671 37.98 39.0001 37.98V38H49.5C50.1631 38 50.799 37.7364 51.2678 37.2676C51.7367 36.7987 52 36.163 52 35.5C52 34.837 51.7367 34.2013 51.2678 33.7324C50.799 33.2636 50.1631 33 49.5 33H39.0001V32.9502C38.5361 32.9302 38.1461 32.9101 37.8881 32.8901Z" fill="#356C81"/>
</svg>
