<svg width="70" height="71" viewBox="0 0 70 71" fill="none" xmlns="http://www.w3.org/2000/svg">
<path fill-rule="evenodd" clip-rule="evenodd" d="M70 69V68.9841C69.9988 68.8511 69.9681 68.72 69.91 68.6001C69.6403 63.5775 67.9161 58.7416 64.9475 54.6812C61.979 50.6207 57.894 47.5108 53.1899 45.73C55.7216 43.2172 57.7186 40.2184 59.0608 36.9136C60.4031 33.6088 61.0626 30.0664 61 26.5C61 12.97 51.8201 2 40.5 2C40.13 2 39.76 2.01981 39.39 2.0498L39.4399 1.99023C36.8174 0.685883 33.9291 0.00460815 31 0C18.85 0 9 11.64 9 26C8.88892 33.3449 11.6646 40.4399 16.73 45.7598C12.0452 47.5506 7.9801 50.6616 5.02673 54.7153C2.07349 58.769 0.358643 63.5919 0.0899658 68.6001C0.0317383 68.7204 0.00109863 68.8521 0 68.9857V69C0 69.2652 0.105347 69.5195 0.292847 69.707C0.480469 69.8946 0.734863 70 1 70C1.26526 70 1.51965 69.8946 1.70715 69.707C1.89478 69.5195 2 69.2652 2 69H2.05005C2.25146 64.2207 3.87793 59.6111 6.72021 55.7637C9.56262 51.9162 13.491 49.0071 18 47.4102V55.1201C14.05 55.9801 11 61.86 11 69C11 69.2652 11.1053 69.5195 11.2928 69.707C11.4805 69.8946 11.7349 70 12 70H14C14.2653 70 14.5197 69.8946 14.7072 69.707C14.8948 69.5195 15 69.2652 15 69C15 68.7348 14.8948 68.4805 14.7072 68.293C14.5197 68.1054 14.2653 68 14 68H13.03C13.28 61.84 15.86 57 19 57C22.14 57 24.72 61.84 24.97 68H24C23.7349 68 23.4805 68.1054 23.2928 68.293C23.1053 68.4805 23 68.7348 23 69C23 69.2652 23.1053 69.5195 23.2928 69.707C23.4805 69.8946 23.7349 70 24 70H26C26.2653 70 26.5197 69.8946 26.7072 69.707C26.8948 69.5195 27 69.2652 27 69C27 61.86 23.9501 55.9801 20 55.1201V47C19.9915 46.9357 19.9781 46.8723 19.96 46.8101L20.1 46.7598C22.0273 46.2618 24.0094 46.0067 26 46H26.01C26.0155 46.1635 26.0564 46.3241 26.13 46.4702L34.13 62.5298C34.1396 62.5429 34.1506 62.555 34.1627 62.5659C34.1682 62.5709 34.1741 62.5756 34.1801 62.5801C34.2118 62.6303 34.2526 62.6743 34.3 62.71C34.3242 62.742 34.3519 62.771 34.3826 62.7966C34.4066 62.8167 34.4325 62.8346 34.46 62.8501C34.4657 62.8585 34.4722 62.8663 34.4795 62.8734C34.4858 62.8795 34.4927 62.8851 34.5 62.8901C34.5347 62.9075 34.5692 62.9098 34.5974 62.9231C34.6018 62.9252 34.606 62.9275 34.61 62.9302C34.675 62.9579 34.7419 62.9812 34.8101 63C34.9364 63.0133 35.0636 63.0133 35.1899 63C35.2253 62.9902 35.2603 62.9793 35.2948 62.9672C35.327 62.9559 35.3588 62.9436 35.39 62.9302C35.406 62.9196 35.4247 62.9146 35.4448 62.9092C35.4625 62.9045 35.4813 62.8995 35.5 62.8901C35.5179 62.8823 35.5322 62.868 35.54 62.8501C35.6024 62.8149 35.6569 62.7671 35.7 62.71C35.7476 62.6743 35.7882 62.6303 35.8199 62.5801C35.8391 62.566 35.856 62.5489 35.87 62.5298L43.87 46.4702C43.9452 46.3251 43.9829 46.1634 43.98 46H44C46.0394 46.0045 48.0698 46.2732 50.04 46.7998C50.021 46.8652 50.0076 46.9323 50 47V60C50 60.0139 50.0043 60.0279 50.0089 60.0428C50.0143 60.0601 50.02 60.0787 50.02 60.1001C48.8032 60.3433 47.7205 61.0302 46.9819 62.0273C46.2435 63.0245 45.9021 64.2608 46.0243 65.4956C46.1465 66.7304 46.7235 67.8754 47.6431 68.7085C48.5204 69.5032 49.6494 69.9596 50.8287 70C50.8857 70.002 50.9429 70.0029 51 70.0029C51.0571 70.0029 51.1143 70.002 51.1713 70C52.3506 69.9596 53.4797 69.5032 54.3569 68.7085C55.2766 67.8754 55.8535 66.7304 55.9757 65.4956C56.0979 64.2608 55.7566 63.0245 55.0181 62.0273C54.2797 61.0302 53.1968 60.3433 51.98 60.1001C51.98 60.0787 51.9857 60.0601 51.9911 60.0428C51.9957 60.0279 52 60.0139 52 60V47.3999C56.5105 48.9977 60.4397 51.9085 63.2821 55.7578C66.1246 59.6072 67.7502 64.2191 67.95 69H68C68 69.2652 68.1053 69.5195 68.2928 69.707C68.4805 69.8946 68.7349 70 69 70C69.1313 70 69.2614 69.9741 69.3827 69.9238C69.504 69.8736 69.6144 69.7999 69.7072 69.707C69.8 69.6142 69.8737 69.5042 69.9238 69.3828C69.9741 69.2615 70 69.1313 70 69ZM48.5056 66.6665C48.176 66.1732 48 65.5934 48 65C48 64.2043 48.316 63.4415 48.8787 62.8789C49.4413 62.3163 50.2043 62 51 62C51.5934 62 52.1735 62.1757 52.6667 62.5054C53.1602 62.835 53.5446 63.3039 53.7716 63.8521C53.9987 64.4002 54.0582 65.0035 53.9424 65.5854C53.8267 66.1674 53.5409 66.7015 53.1213 67.1211C52.7018 67.5406 52.1674 67.8266 51.5853 67.9424C51.0034 68.0581 50.4001 67.9985 49.8519 67.7715C49.3038 67.5444 48.8353 67.1599 48.5056 66.6665ZM41.87 46L35 59.79L28.13 46H29.27C32.9738 47.3334 37.0264 47.3334 40.73 46H41.87ZM31 2C33.417 2.01317 35.8035 2.5414 38 3.5498C38 3.59981 38.01 3.65996 38.01 3.70996L37.9301 3.72021C37.3501 12.9802 30.4801 20.5202 21.0601 22.4502C19.8401 22.7002 18.51 22.9702 18.51 22.9702L18 23.1001C16.8484 23.3336 15.816 23.9659 15.0848 24.8857C14.3536 25.8056 13.9705 26.9538 14.0027 28.1284C14.035 29.303 14.4807 30.4288 15.2612 31.3071C16.0419 32.1854 17.1073 32.7602 18.27 32.9302C18.6622 35.1634 19.4968 37.2955 20.7246 39.2017C21.9525 41.1078 23.549 42.7492 25.42 44.0298C23.2024 44.0829 21.0007 44.4226 18.87 45.04C16.3201 42.5777 14.3052 39.6158 12.951 36.3398C11.597 33.0639 10.9327 29.5441 11 26C11 12.74 19.9501 2 31 2ZM32.0015 19.2285C34.9764 16.6816 37.2656 13.4296 38.66 9.77002C40.2501 17.24 44.3101 23.0901 49.72 24.6602L51 25C51.7957 25 52.5587 25.3163 53.1213 25.8789C53.684 26.4415 54 27.2043 54 28C54 28.7957 53.684 29.5585 53.1213 30.1211C52.5587 30.6837 51.7957 31 51 31H49.95C49.7015 34.7959 48.0184 38.355 45.2421 40.9556C42.4657 43.5561 38.8041 45.0034 35 45.0034C31.1959 45.0034 27.5343 43.5561 24.7579 40.9556C21.9816 38.355 20.2986 34.7959 20.05 31H19C18.2043 31 17.4413 30.6837 16.8787 30.1211C16.316 29.5585 16 28.7957 16 28C16 27.2043 16.316 26.4415 16.8787 25.8789C17.4413 25.3163 18.2043 25 19 25C19 25 20.3 24.6501 21.63 24.3501C25.4608 23.5363 29.0266 21.7755 32.0015 19.2285ZM40.5 4C50.72 4 59 14.07 59 26.5C59 34.18 55.8301 40.95 51 45C48.9087 44.4111 46.752 44.0851 44.58 44.0298C46.4512 42.7492 48.0476 41.1078 49.2754 39.2017C50.5033 37.2955 51.3378 35.1634 51.73 32.9302C52.8927 32.7602 53.9583 32.1854 54.7388 31.3071C55.5194 30.4288 55.9651 29.303 55.9973 28.1284C56.0297 26.9538 55.6464 25.8056 54.9152 24.8857C54.184 23.9659 53.1516 23.3336 52 23.1001L50.48 22.79C44.5701 21.13 40.1901 13.3198 40.02 4.02979C40.1427 4.02213 40.2654 4.0087 40.3881 4.00285C40.4254 4.00107 40.4628 4 40.5 4ZM51.08 19.8101C51.3782 19.9 51.6885 19.9438 52 19.9399C52.2653 19.9399 52.5197 19.8345 52.7072 19.647C52.8948 19.4594 53 19.2052 53 18.9399C52.9948 18.6735 52.8887 18.4192 52.703 18.228C52.5175 18.0368 52.2661 17.9233 52 17.9102C51.1091 17.6318 50.2826 17.179 49.5684 16.5781C48.8542 15.9772 48.2666 15.2403 47.84 14.4102C47.0016 12.9615 46.3689 11.4028 45.96 9.77979C45.9106 9.56093 45.7893 9.3651 45.6151 9.22363C45.441 9.08217 45.2244 9.00348 45 9C44.8719 8.99756 44.7448 9.02097 44.626 9.06885C44.5072 9.11673 44.3993 9.18825 44.3087 9.27881C44.2181 9.36937 44.1467 9.47691 44.0989 9.5957C44.051 9.71449 44.0276 9.84216 44.03 9.97021C44.0327 10.2681 44.056 10.5652 44.1 10.8599C44.1 10.8599 44.0599 12.5901 46.3199 15.8501C47.6899 17.8201 49.14 19.3201 51.08 19.8101ZM39 28H43C43.2653 28 43.5197 27.8946 43.7072 27.707C43.8948 27.5195 44 27.2652 44 27C44 26.7348 43.8948 26.4805 43.7072 26.293C43.5197 26.1054 43.2653 26 43 26H39C38.7349 26 38.4805 26.1054 38.2928 26.293C38.1053 26.4805 38 26.7348 38 27C38 27.2652 38.1053 27.5195 38.2928 27.707C38.4805 27.8946 38.7349 28 39 28ZM39.27 35.2002C39.2393 35.2329 39.2058 35.2629 39.17 35.29C38.0602 36.3824 36.5663 36.9963 35.009 37C33.4518 37.0037 31.9551 36.3971 30.84 35.3101C30.8302 35.2996 30.8198 35.2897 30.8087 35.2807C30.7996 35.2731 30.7899 35.2662 30.78 35.2598L30.75 35.23H30.74C30.5669 35.0828 30.3473 35.0013 30.12 35C29.8549 35 29.6005 35.1054 29.4128 35.293C29.2253 35.4805 29.12 35.7348 29.12 36C29.121 36.1414 29.1528 36.2809 29.2133 36.4087C29.2738 36.5365 29.3613 36.6498 29.47 36.7402L29.46 36.7598C30.9677 38.214 32.9858 39.0187 35.0804 39C37.175 38.9813 39.1786 38.1411 40.66 36.6602L40.63 36.6299C40.7845 36.4564 40.8699 36.2323 40.87 36C40.87 35.7348 40.7648 35.4805 40.5771 35.293C40.3896 35.1054 40.1353 35 39.87 35C39.6564 35.0071 39.4502 35.0805 39.28 35.21L39.27 35.2002ZM27 28H31C31.2653 28 31.5197 27.8946 31.7072 27.707C31.8948 27.5195 32 27.2652 32 27C32 26.7348 31.8948 26.4805 31.7072 26.293C31.5197 26.1054 31.2653 26 31 26H27C26.7349 26 26.4805 26.1054 26.2928 26.293C26.1053 26.4805 26 26.7348 26 27C26 27.2652 26.1053 27.5195 26.2928 27.707C26.4805 27.8946 26.7349 28 27 28ZM31 8.06006V8.02979C31.2653 8.02979 31.5197 7.92484 31.7072 7.7373C31.8948 7.54977 32 7.295 32 7.02979C32 6.76457 31.8948 6.51028 31.7072 6.32275C31.5197 6.13522 31.2653 6.02979 31 6.02979C30.8169 6.01292 30.6324 6.01653 30.45 6.04004C26.9255 6.45778 23.661 8.10411 21.23 10.6899C16.74 15.1399 17.03 18 17.03 18C17.03 18.2652 17.1354 18.5195 17.3229 18.707C17.5105 18.8946 17.7649 19 18.03 19C18.2953 19 18.5496 18.8946 18.7371 18.707C18.9247 18.5195 19.03 18.2652 19.03 18C19.7528 15.732 21.0397 13.6844 22.77 12.0498C24.9292 9.7527 27.8593 8.3324 31 8.06006Z" fill="#356C81"/>
</svg>
