<svg width="70" height="70" viewBox="0 0 70 70" fill="none" xmlns="http://www.w3.org/2000/svg">
<path fill-rule="evenodd" clip-rule="evenodd" d="M35.04 0H34.9699C31.1633 0.0012207 27.3826 0.626266 23.778 1.8501C24.4076 2.30142 24.9851 2.82108 25.5 3.3999C31.0461 1.72937 36.9348 1.55057 42.5721 2.88135C48.2095 4.21213 53.3964 7.00552 57.6099 10.98L51.9399 16.6499C48.7759 13.7066 44.8986 11.6399 40.6912 10.6543C36.4838 9.66866 32.092 9.79808 27.95 11.0298C27.8657 11.8041 27.6911 12.566 27.43 13.2998C31.3477 11.9183 35.568 11.6315 39.6367 12.4702C43.7053 13.309 47.4681 15.2418 50.52 18.0601L44.8699 23.7202C42.3743 21.5231 39.2184 20.2191 35.8998 20.0137C32.5812 19.8083 29.2886 20.7129 26.5411 22.5854C23.7935 24.458 21.7474 27.192 20.7251 30.356C19.7028 33.5199 19.7626 36.9339 20.895 40.0601C21.262 40.0198 21.6308 39.9997 22 40C22.344 40 22.684 40.0198 23.018 40.0498C21.877 37.3516 21.6816 34.3472 22.4635 31.5239C23.2454 28.7007 24.9586 26.2244 27.3251 24.4976C29.6915 22.7707 32.5721 21.8946 35.4993 22.0112C38.4266 22.1278 41.2284 23.2305 43.45 25.1401L37.7599 30.8301C36.7208 30.1356 35.4606 29.8519 34.2241 30.0342C32.9875 30.2164 31.8627 30.8516 31.0681 31.8164C30.2734 32.7812 29.8655 34.0068 29.9235 35.2554C29.9815 36.5039 30.5012 37.6863 31.382 38.5732C32.2626 39.4602 33.4414 39.9884 34.6895 40.0552C35.9377 40.122 37.1661 39.7224 38.1364 38.9346C39.1068 38.1467 39.7499 37.0267 39.9409 35.7915C40.1318 34.5563 39.8571 33.2941 39.17 32.25L61.7199 9.68994C61.9062 9.50258 62.0107 9.24905 62.0107 8.98486C62.0107 8.72067 61.9062 8.46715 61.7199 8.27979C61.5311 8.09244 61.2759 7.9873 61.0099 7.9873C60.744 7.9873 60.4888 8.09244 60.3 8.27979L59.03 9.56006C52.5499 3.42317 43.9648 0.0019989 35.04 0ZM69.9999 36C69.9999 35.7348 69.8947 35.4805 69.7071 35.293C69.5196 35.1054 69.2652 35 68.9999 35C68.7347 35 68.4803 35.1054 68.2928 35.293C68.1053 35.4805 67.9999 35.7348 67.9999 36H67.9699C67.813 41.2188 66.4197 46.326 63.9046 50.9014C61.3895 55.4768 57.8245 59.3896 53.5025 62.3188C49.1805 65.2481 44.225 67.11 39.0434 67.751C33.8618 68.392 28.6021 67.794 23.6965 66.0063C18.791 64.2187 14.3798 61.2923 10.8256 57.4678C7.2713 53.6432 4.67548 49.0295 3.25159 44.0063C1.82764 38.9832 1.61615 33.6936 2.63464 28.5728C3.65308 23.4519 5.87231 18.6459 9.10999 14.5498C8.75562 13.8606 8.48303 13.1324 8.29797 12.3799C2.95105 18.6697 0.0111084 26.6526 0 34.906C0 34.9373 0 34.9686 0 35C0 44.2826 3.6875 53.1848 10.2513 59.7485C16.815 66.3123 25.7174 70 34.9999 70C44.0789 69.9995 52.8021 66.4702 59.3272 60.1577C65.8524 53.8452 69.6687 45.2438 69.9699 36.1699C69.9848 36.1142 69.9948 36.0574 69.9999 36ZM32.5056 33.3335C32.176 33.8268 31.9999 34.4067 31.9999 35C31.9999 35.7957 32.316 36.5585 32.8786 37.1211C33.4412 37.6837 34.2043 38 34.9999 38C35.5933 38 36.1733 37.8243 36.6667 37.4946C37.16 37.165 37.5446 36.6961 37.7717 36.1479C37.9987 35.5998 38.0581 34.9965 37.9423 34.4146C37.8266 33.8326 37.5409 33.2985 37.1213 32.8789C36.7017 32.4594 36.1672 32.1734 35.5853 32.0576C35.0033 31.9419 34.4001 32.0014 33.8519 32.2285C33.3037 32.4556 32.8352 32.8401 32.5056 33.3335ZM13.902 44.1499C13.4218 44.8124 13.0242 45.5312 12.718 46.29C10.6742 42.2848 9.75372 37.8009 10.0545 33.3145C10.3552 28.828 11.8659 24.5067 14.426 20.8101L15.826 22.3101C13.7094 25.5012 12.4246 29.1709 12.0886 32.9854C11.7526 36.7999 12.3759 40.6379 13.902 44.1499ZM23.55 14.25L23.567 14.2598L19 20H17L12.375 14.1899L12.394 14.1802C11.7297 13.2918 11.286 12.258 11.0996 11.1646C10.9131 10.0711 10.9892 8.94891 11.3215 7.89062C11.6538 6.83234 12.2329 5.86821 13.011 5.07764C13.7891 4.28706 14.744 3.69287 15.7969 3.34375C16.8497 2.99463 17.9705 2.90077 19.0668 3.06982C20.163 3.23888 21.2035 3.66585 22.1023 4.31592C23.001 4.96599 23.7325 5.82036 24.2363 6.80859C24.7401 7.79683 25.0019 8.89076 25 10C25.0019 11.5384 24.4918 13.0336 23.55 14.25ZM18.3228 44.0396C19.4282 43.3582 20.7015 42.9983 22 43C23.3062 42.9977 24.5869 43.3616 25.6967 44.0503C26.8065 44.739 27.7011 45.7251 28.2791 46.8965C28.8569 48.0679 29.0949 49.3774 28.9661 50.6772C28.8372 51.9771 28.3466 53.2149 27.55 54.25L27.57 54.2598L23 60H21L16.375 54.1899L16.394 54.1802C15.6159 53.1406 15.1428 51.9047 15.0276 50.6113C14.9124 49.318 15.1596 48.0182 15.7416 46.8574C16.3236 45.6967 17.2174 44.7209 18.3228 44.0396ZM28.93 57.2002L28.96 57.1699C33.7492 58.4982 38.8411 58.2267 43.4617 56.3965C48.0825 54.5663 51.9793 51.2772 54.56 47.0298L55.4699 48H56.3C53.3982 52.7848 48.9706 56.4538 43.73 58.4165C38.4896 60.3792 32.741 60.5212 27.41 58.8198L28.93 57.2002ZM45.3572 42.8569C46.3868 41.492 47.1355 39.936 47.56 38.2798C47.8644 39.154 48.2884 39.9823 48.8199 40.7402C47.4881 43.9553 45.0798 46.6071 42.0076 48.2417C38.9355 49.8763 35.3905 50.392 31.98 49.7002C31.9606 48.9785 31.8633 48.2609 31.69 47.5601C33.3415 48.0023 35.0644 48.1127 36.7589 47.8848C38.4532 47.6568 40.0857 47.095 41.5616 46.2319C43.0375 45.3689 44.3276 44.2219 45.3572 42.8569ZM53.327 29.0439C54.4309 28.3622 55.7025 28.0009 56.9999 28C58.3062 27.9977 59.5868 28.3616 60.6966 29.0503C61.8065 29.739 62.7011 30.7251 63.279 31.8965C63.8569 33.0679 64.0949 34.3774 63.966 35.6772C63.8372 36.9771 63.3467 38.2149 62.55 39.25L62.5699 39.2598L57.9999 45H55.9999L51.3699 39.1899L51.39 39.1802C50.6152 38.1395 50.145 36.9038 50.0317 35.6113C49.9184 34.3188 50.1665 33.02 50.7484 31.8604C51.3303 30.7007 52.2231 29.7256 53.327 29.0439ZM56.9999 43L60.9999 38L60.9899 37.9902C61.5504 37.2481 61.8928 36.364 61.9786 35.438C62.0645 34.512 61.8903 33.5805 61.4758 32.748C61.0613 31.9156 60.4229 31.2152 59.6321 30.7256C58.8415 30.236 57.9299 29.9766 56.9999 29.9766C56.07 29.9766 55.1584 30.236 54.3677 30.7256C53.5771 31.2152 52.9387 31.9156 52.5241 32.748C52.1096 33.5805 51.9355 34.512 52.0213 35.438C52.1072 36.364 52.4495 37.2481 53.0099 37.9902L52.9999 38L56.9999 43ZM57.9999 34H58.9999C59.2652 34 59.5196 34.1054 59.7071 34.293C59.8947 34.4805 59.9999 34.7348 59.9999 35C59.9999 35.2652 59.8947 35.5195 59.7071 35.707C59.5196 35.8946 59.2652 36 58.9999 36H57.9999V37C57.9999 37.2652 57.8947 37.5195 57.7071 37.707C57.5196 37.8946 57.2652 38 56.9999 38C56.7347 38 56.4803 37.8946 56.2928 37.707C56.1053 37.5195 55.9999 37.2652 55.9999 37V36H54.9999C54.7347 36 54.4803 35.8946 54.2928 35.707C54.1053 35.5195 53.9999 35.2652 53.9999 35C53.9999 34.7348 54.1053 34.4805 54.2928 34.293C54.4803 34.1054 54.7347 34 54.9999 34H55.9999V33C55.9999 32.7348 56.1053 32.4805 56.2928 32.293C56.4803 32.1054 56.7347 32 56.9999 32C57.2652 32 57.5196 32.1054 57.7071 32.293C57.8947 32.4805 57.9999 32.7348 57.9999 33V34ZM22 58L26 53L25.99 52.9902C26.5507 52.2482 26.8934 51.3641 26.9796 50.438C27.0656 49.5119 26.8917 48.5802 26.4772 47.7476C26.0627 46.9149 25.4243 46.2143 24.6335 45.7246C23.8428 45.2349 22.9311 44.9756 22.001 44.9756C21.0709 44.9756 20.1592 45.2349 19.3685 45.7246C18.5777 46.2143 17.9392 46.9149 17.5248 47.7476C17.1103 48.5802 16.9363 49.5119 17.0225 50.438C17.1085 51.3641 17.4512 52.2482 18.012 52.9902L18 53L22 58ZM23 49H24C24.2652 49 24.5195 49.1054 24.7071 49.293C24.8946 49.4805 25 49.7348 25 50C25 50.2652 24.8946 50.5195 24.7071 50.707C24.5195 50.8946 24.2652 51 24 51H23V52C23 52.2652 22.8946 52.5195 22.7071 52.707C22.5195 52.8946 22.2652 53 22 53C21.7347 53 21.4804 52.8946 21.2929 52.707C21.1053 52.5195 21 52.2652 21 52V51H20C19.7347 51 19.4804 50.8946 19.2929 50.707C19.1053 50.5195 19 50.2652 19 50C19 49.7348 19.1053 49.4805 19.2929 49.293C19.4804 49.1054 19.7347 49 20 49H21V48C21 47.7348 21.1053 47.4805 21.2929 47.293C21.4804 47.1054 21.7347 47 22 47C22.2652 47 22.5195 47.1054 22.7071 47.293C22.8946 47.4805 23 47.7348 23 48V49ZM14 13L18 18L22 13L21.988 12.9902C22.5491 12.2483 22.8921 11.3642 22.9785 10.438C23.0648 9.51175 22.8909 8.57994 22.4766 7.74707C22.0622 6.9142 21.4237 6.21349 20.6329 5.72363C19.842 5.23378 18.9302 4.97412 18 4.97412C17.0697 4.97412 16.158 5.23378 15.3671 5.72363C14.5763 6.21349 13.9377 6.9142 13.5234 7.74707C13.1091 8.57994 12.9352 9.51175 13.0215 10.438C13.1078 11.3642 13.4509 12.2483 14.012 12.9902L14 13ZM19 9H20C20.2652 9 20.5195 9.10544 20.7071 9.29297C20.8946 9.4805 21 9.73479 21 10C21 10.2652 20.8946 10.5195 20.7071 10.707C20.5195 10.8946 20.2652 11 20 11H19V12C19 12.2652 18.8946 12.5195 18.7071 12.707C18.5195 12.8946 18.2652 13 18 13C17.7347 13 17.4804 12.8946 17.2929 12.707C17.1053 12.5195 17 12.2652 17 12V11H16C15.7347 11 15.4804 10.8946 15.2929 10.707C15.1053 10.5195 15 10.2652 15 10C15 9.73479 15.1053 9.4805 15.2929 9.29297C15.4804 9.10544 15.7347 9 16 9H17V8C17 7.73479 17.1053 7.4805 17.2929 7.29297C17.4804 7.10544 17.7347 7 18 7C18.2652 7 18.5195 7.10544 18.7071 7.29297C18.8946 7.4805 19 7.73479 19 8V9Z" fill="#356C81"/>
</svg>
