<?xml version="1.0" encoding="iso-8859-1"?>
<!DOCTYPE svg PUBLIC "-//W3C//DTD SVG 1.1//EN" "http://www.w3.org/Graphics/SVG/1.1/DTD/svg11.dtd">
<svg fill="#4AB3BF" version="1.1" id="Capa_1" xmlns="http://www.w3.org/2000/svg" xmlns:xlink="http://www.w3.org/1999/xlink" 
x="0px" y="0px" style="enable-background:new 0 0 483.013 483.013;" xml:space="preserve" viewBox="0 0 70 86">
    <path d="M.8 0C.4.1 0 .5 0 1v70c0 .5.5 1 1 1h26.5c3.2 8.2 11.2 14 20.5 14 12.1 0 22-9.9 22-22 0-10.8-7.8-19.7-18-21.6V17c0-.3-.1-.5-.3-.7l-16-16c-.2-.2-.4-.3-.7-.3H.8zM2 2h32v15c0 .5.5 1 1 1h15v24.1c-.7-.1-1.3-.1-2-.1-2.4 0-4.6.4-6.8 1.1-10.8-.2-22-.1-31.4-.1-.5 0-1 .6-.9 1.1.1.5.6.9 1.1.9h26.9c-3 1.7-5.5 4.1-7.3 7H9.8c-.5 0-1 .6-.9 1.1.1.5.6.9 1.1.9h18.4c-1.1 2.2-1.9 4.5-2.2 7H9.8c-.5 0-1 .6-.9 1.1.1.5.6.9 1.1.9h16v1c0 2.1.3 4.1.8 6H2V2zm34 1.4L48.6 16H36V3.4zM9.8 34c-.5 0-1 .6-.9 1.1.1.5.6.9 1.1.9h32c.5 0 1-.5 1-1s-.5-1-1-1H9.8zM48 44c11.1 0 20 8.9 20 20s-8.9 20-20 20-20-8.9-20-20 8.9-20 20-20m-.1 10c-.5 0-.9.5-.9 1v15.6l-4.3-4.3c-.2-.2-.5-.3-.8-.3-.8.1-1.1 1.2-.6 1.7l6 6c.4.4 1.1.4 1.4 0l6-6c.4-.4.4-1.1 0-1.4s-1-.4-1.4 0L49 70.6V55c0-.6-.6-1.1-1.1-1" clip-path="url(#b)"></path>
</svg>